<svg xmlns="http://www.w3.org/2000/svg" id="Illustration" width="552" height="508.031" viewBox="0 0 552 508.031"><metadata><?xpacket begin="﻿" id="W5M0MpCehiHzreSzNTczkc9d"?><x:xmpmeta xmlns:x="adobe:ns:meta/" x:xmptk="Adobe XMP Core 5.6-c142 79.160924, 2017/07/13-01:06:39"><rdf:RDF xmlns:rdf="http://www.w3.org/1999/02/22-rdf-syntax-ns#"><rdf:Description/></rdf:RDF></x:xmpmeta><?xpacket end="w"?></metadata><defs><style>.cls-1{fill:#b3c1cf}.cls-1,.cls-10,.cls-11,.cls-12,.cls-13,.cls-14,.cls-15,.cls-16,.cls-17,.cls-18,.cls-19,.cls-2,.cls-20,.cls-21,.cls-22,.cls-23,.cls-24,.cls-25,.cls-26,.cls-27,.cls-28,.cls-29,.cls-3,.cls-30,.cls-31,.cls-4,.cls-5,.cls-6,.cls-7,.cls-8,.cls-9{fill-rule:evenodd}.cls-2{fill:#8e5e51}.cls-3{fill:#664647}.cls-4{fill:#233144}.cls-5{fill:#d9e2e9}.cls-6{fill:#fc0e28}.cls-7{fill:#bac5d6}.cls-8{fill:#fffffe}.cls-9{fill:#f4f6f8}.cls-10{fill:#7b91ad}.cls-11{fill:#c10634}.cls-12{fill:#49313e}.cls-13{fill:#252f3e}.cls-14{fill:#aab9ca}.cls-15{fill:#ec0020}.cls-16{fill:#feb18a}.cls-17{fill:#21406d}.cls-18{fill:#203253}.cls-19{fill:#102d76}.cls-20{fill:#102e75}.cls-21{fill:#bc8370}.cls-22{fill:#ed003f}.cls-23{fill:#153b99}.cls-24{fill:#021d63}.cls-25{fill:#0f3080}.cls-26{fill:#8b1034}.cls-27{fill:#8c645f}.cls-28{fill:#98abc0}.cls-29{fill:#252f59}.cls-30{fill:#23314b}.cls-31{fill:#d8e2e9}</style></defs><path id="Fill_7" d="M970,784h5.437L996,660.286,988.59,659,970,784" class="cls-1" data-name="Fill 7" transform="translate(-935 -278.969)"/><path id="Fill_8" d="M1012,783h5.08L1036,661h-8.31L1012,783" class="cls-1" data-name="Fill 8" transform="translate(-935 -278.969)"/><path id="Fill_9" d="M1076.32,784H1082l-19.18-123-7.82.166L1076.32,784" class="cls-1" data-name="Fill 9" transform="translate(-935 -278.969)"/><path id="Fill_10" d="M1200.48,358.749c-2.03,7.06-4.74,18.477-15.84,19.517,0.35,3.16,1.57,7.328,5.53,8.326,6.57,1.655,8.21,8.511,8.21,8.511L1182.9,449h-19.23s-25.46-61.675-23.57-61.952c0.71-.1,15.37-1.873,19.12-6.364,2.7-3.24,3.09-9.659,3.1-13a39.414,39.414,0,0,1-5.69-8.938l-2.58-14.184L1172.81,324h27.91l3.28,7.8s-1.41,19.621-3.52,26.949" class="cls-2" data-name="Fill 10" transform="translate(-935 -278.969)"/><path id="Fill_11" d="M1157,382v0m0.03-.025h0m0.04-.024v0m0.03-.024v0m0.03-.024a0.024,0.024,0,0,1,.01,0,0.024,0.024,0,0,0-.01,0m0.03-.025c0.01,0,.01,0,0.01,0s0,0-.01,0m0.04-.025v0m0.03-.025a0.053,0.053,0,0,0,.01-0.006,0.027,0.027,0,0,1-.01.006m0.03-.024a0.07,0.07,0,0,1,.01-0.008,0.07,0.07,0,0,0-.01.008m0.03-.024c0.01,0,.01-0.007.02-0.011-0.01,0-.01.007-0.02,0.011m0.03-.025c0.01,0,.01-0.008.02-0.012-0.01,0-.01.008-0.02,0.012m0.04-.025s0.01-.009.01-0.013-0.01.009-.01,0.013m0.03-.024c0-.006.01-0.01,0.01-0.015s-0.01.009-.01,0.015m0.03-.027a0.226,0.226,0,0,0,.02-0.013,0.226,0.226,0,0,1-.02.013m0.03-.025c0.01,0,.01-0.009.02-0.014-0.01,0-.01.009-0.02,0.014m0.03-.026a0.226,0.226,0,0,0,.02-0.013c-0.01,0-.01.009-0.02,0.013m0.03-.025a0.034,0.034,0,0,0,.02-0.014,0.034,0.034,0,0,1-.02.014m0.03-.024a0.039,0.039,0,0,0,.02-0.016,0.039,0.039,0,0,1-.02.016m0.04-.027s0.01-.01.01-0.016-0.01.011-.01,0.016m0.03-.025a0.035,0.035,0,0,1,.02-0.017,0.035,0.035,0,0,0-.02.017m0.03-.026a0.04,0.04,0,0,1,.02-0.018,0.04,0.04,0,0,0-.02.018m0.03-.026a0.045,0.045,0,0,1,.02-0.018,0.045,0.045,0,0,0-.02.018m0.03-.025a0.037,0.037,0,0,1,.02-0.019,0.037,0.037,0,0,0-.02.019m0.03-.026a0.038,0.038,0,0,1,.02-0.02,0.038,0.038,0,0,0-.02.02m0.03-.026a0.039,0.039,0,0,1,.02-0.021,0.039,0.039,0,0,0-.02.021m0.03-.026a0.042,0.042,0,0,1,.02-0.021,0.042,0.042,0,0,0-.02.021m0.02-.026,0.03-.023-0.03.023m0.03-.027,0.03-.022-0.03.022m0.03-.026,0.03-.023-0.03.023m0.03-.026,0.03-.023-0.03.023m0.03-.027,0.03-.024-0.03.024m0.03-.027,0.03-.023-0.03.023m0.03-.026c0.01-.008.01-0.017,0.02-0.024-0.01.009-.01,0.016-0.02,0.024m0.03-.027a0.052,0.052,0,0,1,.02-0.025,0.052,0.052,0,0,0-.02.025m0.02-.026,0.03-.026-0.03.026m0.03-.028,0.03-.025-0.03.025m0.03-.026,0.03-.026-0.03.026m0.03-.027c0.01-.009.01-0.017,0.02-0.026-0.01.009-.01,0.017-0.02,0.026m0.02-.028,0.03-.026-0.03.026m0.03-.026q0.195-.192.36-0.388-0.165.2-.36,0.388m0.36-.39a0.048,0.048,0,0,0,.02-0.027,0.048,0.048,0,0,1-.02.027m0.02-.027a0.235,0.235,0,0,0,.05-0.057,0.279,0.279,0,0,1-.05.057m0.05-.058,0.09-.114-0.09.114m0.09-.114,0.03-.027-0.03.027m0.03-.028a0.046,0.046,0,0,1,.02-0.029,0.046,0.046,0,0,0-.02.029m0.02-.029c0.01-.02.03-0.038,0.04-0.057-0.01.019-.03,0.037-0.04,0.057m0.04-.059a0.044,0.044,0,0,0,.02-0.025,0.044,0.044,0,0,1-.02.025m0.03-.029a0.049,0.049,0,0,1,.02-0.028,0.053,0.053,0,0,0-.02.028m0.02-.028a0.209,0.209,0,0,1,.04-0.06,0.209,0.209,0,0,0-.04.06m0.04-.06a0.2,0.2,0,0,1,.04-0.056,0.2,0.2,0,0,0-.04.056m0.04-.058c0.01-.011.01-0.02,0.02-0.029-0.01.009-.01,0.018-0.02,0.029m0.02-.031c0.01-.007.01-0.015,0.02-0.023-0.01.008-.01,0.016-0.02,0.023m0.02-.029c0.01-.008.01-0.017,0.02-0.026-0.01.009-.01,0.018-0.02,0.026m0.02-.029c0.01-.011.01-0.021,0.02-0.03-0.01.009-.01,0.019-0.02,0.03" class="cls-1" data-name="Fill 11" transform="translate(-935 -278.969)"/><path id="Fill_12" d="M1152,389c4.84-2.1,9.96-2.342,14.22-2.342,0.63,0,1.25.007,1.84,0.011s1.16,0.011,1.7.011c2.46,0,4.36-.111,5.34-0.837,2.85-2.13,6.33-6.046,2.69-9.479-6.61-6.228,2.12-8.318,3.3-18.775,1.17-10.277-6.57-16.94,3.59-16.94,0.18,0,.36,0,0.55.006,4.5,0.1,7.56.424,10.01,0.424a11.2,11.2,0,0,0,7.1-2.042c0.64-2.647,2.37-5.457,2.64-8.623,0.18-2.112-.79-2.842-1.95-2.842a4.348,4.348,0,0,0-3.1,1.5c-1.24,1.6-.32,4.269-2.18,4.625a2.771,2.771,0,0,1-.52.051c-1.53,0-2.41-1.418-2.97-2.626s-1.32-3.112-2.94-3.112a2.365,2.365,0,0,0-.6.081c-2.04.535-2.16,2.633-2.6,4.86a2.378,2.378,0,0,1-2.47,1.893,3.186,3.186,0,0,1-2.36-1.038c-1.41-1.6-.99-2.366-0.96-4.742a1.8,1.8,0,0,0-1.88-2.069c-1.58,0-3.55,1.411-3.37,3.376s3.1,2.794,2.04,4.939c-0.51,1.017-.9,1.288-1.33,1.288a3.231,3.231,0,0,1-.83-0.179,3.84,3.84,0,0,0-1.11-.181c-0.1,0-.2,0-0.31.015-1.87.179-2.5,0.892-1.18,3.031s2.01,4.761,1.57,6.186c-0.36,1.157-.95,2.9-2.2,2.9a1.965,1.965,0,0,1-.99-0.315c-1.95-1.159-1.68-5.7-4.69-6.327a5.783,5.783,0,0,0-1.18-.126c-2.37,0-3.94,1.714-3.78,5.028,0.17,3.832,2.3,8.376,3.36,9.357a2.656,2.656,0,0,0,1.82.652,3.237,3.237,0,0,0,.78-0.088s-0.55,4.772-1.35,8.835c0.46,8.03-1.06,16.973-15.7,23.609m8.56-9.2,0.03-.036-0.03.036h0m0.03-.041,0.03-.033-0.03.033m0.04-.039a0.064,0.064,0,0,1,.02-0.035,0.06,0.06,0,0,0-.02.035m0.03-.04c0.01-.01.01-0.021,0.02-0.031-0.01.01-.01,0.021-0.02,0.031m0.03-.038a0.064,0.064,0,0,1,.02-0.032,0.064,0.064,0,0,0-.02.032m0.03-.041a0.053,0.053,0,0,0,.02-0.03,0.053,0.053,0,0,1-.02.03m0.03-.045c0.01-.006.01-0.012,0.02-0.018-0.01.006-.01,0.012-0.02,0.018m0.04-.047v0" class="cls-3" data-name="Fill 12" transform="translate(-935 -278.969)"/><path id="Fill_13" d="M1168.43,358.371a3,3,0,0,1-2.6-.565c-1.06-.983-3.19-5.536-3.36-9.376s1.95-5.535,4.96-4.91,2.75,5.178,4.7,6.339,2.74-1.161,3.19-2.59-0.24-4.054-1.57-6.2-0.69-2.857,1.18-3.037a3.571,3.571,0,0,1,1.41.167c0.86,0.245,1.37.493,2.16-1.111,1.07-2.15-1.86-2.992-2.03-4.949-0.3-3.26,5.3-5,5.25-1.308-0.03,2.38-.45,3.143.97,4.749s4.38,1.377,4.82-.855,0.57-4.334,2.6-4.87,2.93,1.7,3.55,3.036,1.62,2.938,3.48,2.581,0.95-3.028,2.19-4.634,5.4-2.857,5.05,1.34-3.28,7.767-2.83,11.16-1.07,11.7-.98,14.732,0.12,4.383,2.22,3.929,5.58-6.786,5.84-9.644-1.59-9.285-.09-12.231,7.36,0.893,6.83-6.25-3.82-6.043-3.11-8.841,5.35-.972,4.67-4.926c-0.53-3.1-4.4-1.4-5.31-4.039-1.48-4.267,5.52-5.5,4.19-8.356s-9.04-.446-9.92-2.678,6.29-6.34,4.16-9.286c-1.22-1.695-3.96-1.234-6.32-.775-1.75.341-3.28,0.681-3.82,0.149-1.29-1.25,0-3.526-.85-6.338s-5.84-3.929-8.59-1.7-2.66,4.464-3.55,3.215,0-5.179-2.83-5.179-7.36,1.7-10.37-.625-4.96-7.769-8.24-4.465,0,6.161-.75,7.1c-0.34.414-.69,0.141-1.14-0.133a1.463,1.463,0,0,0-2.19.357c-1.68,1.875-1.19,3.794-3.81,3.661s-2.12-4.643-4.34-6.964-7,0-6.47,3.927,5.49,3.572,5.32,6.251a8.624,8.624,0,0,1-3.01,5.714c-1.16.982-3.73,0-4.44,1.251s0.89,5.446,0,6.34-1.77.981-5.14-1.608-6.73,3.3-4.42,5.268,7.35,4.821,6.46,8.124-6.2,1.073-6.91,3.841,4.61,6.695,3.46,7.945c-0.46.5-1.65,0.4-2.92,0.3-1.91-.15-4.01-0.3-4.17,1.576-0.27,3.124,5.67,5,5.14,7.947s-5.41,3.035-4.26,5.625c0.55,1.222,2.3,1.09,4.05.96,1.96-.147,3.91-0.293,4.2,1.45,0.53,3.3-4.88,2.411-3.99,4.911,0.48,1.374,2.2,1.1,3.59.832,1.14-.223,2.06-0.444,1.9.239-0.35,1.518-1.42,1.43-3.81,2.322s0,3.749,1.77,3.661,14.36-2.323,14.63-.179-4.35,2.5-2.57,3.929a1.6,1.6,0,0,0,2.17-.047c0.57-.371,1.07-0.744,1.64-0.131,1.15,1.249-2.66,3.839,0,3.66s3.19-2.679,5.09-1.977,0.84,2.066.1,5.23,3.25,3.28,4.82,1.122,2.95-14.167,2.95-14.167" class="cls-4" data-name="Fill 13" transform="translate(-935 -278.969)"/><path id="Fill_14" d="M1229,564.239L1239.75,558s-1.94,1.96,7.23,8.736,16.92,5.705,24.14,7.311S1278,581,1278,581h-35.24a13.152,13.152,0,0,1-12.96-11.3l-0.8-5.464" class="cls-2" data-name="Fill 14" transform="translate(-935 -278.969)"/><path id="Fill_15" d="M1228.18,570s-8.79-29.288-11.96-38.135-6.69-28.316-8.44-36.809S1193,466.741,1193,466.741L1200.04,391c2.18-.135,11.89,6.686,13.64,20.253,1.38,10.577,7.82,67.874,12.74,76.723S1244,563.8,1244,563.8l-15.82,6.2" class="cls-5" data-name="Fill 15" transform="translate(-935 -278.969)"/><path id="Fill_16" d="M1144,770.031v-4.6L1156.48,764s6.04,8.351,9.98,10.738,6.74,2.863,17.19,4.773,8.13,5.489,8.13,5.489H1144V770.031" class="cls-1" data-name="Fill 16" transform="translate(-935 -278.969)"/><path id="Fill_17" d="M1183,771.914v-3.98l17.97-.934v3.532s9.84,6.986,21.01,7.808S1236,785,1236,785h-53V771.914" class="cls-1" data-name="Fill 17" transform="translate(-935 -278.969)"/><path id="Fill_18" d="M1108,542.866l95.32-.866s10.48,21.239,14.38,36.643,9.75,48.515,7.97,60.556-20.9,125.712-20.55,129.608-21.97,4.6-21.97,0-2.65-34.527-2.65-34.527,5.49-5.49,4.07-39.484a282.122,282.122,0,0,1,3.9-60.556l-20.2-40.463v57.816s-4.96,112.964-4.96,116.506-20.2,4.6-20.2,0-5.55-39.545-7.91-57.486,0-43.911-.94-59.493-11.82-43.439-18.9-65.632A163.968,163.968,0,0,1,1108,542.866Z" class="cls-6" data-name="Fill 18" transform="translate(-935 -278.969)"/><path id="Fill_19" d="M1217.51,534c0.67-14.13,8.49-34.714,1.81-47.367-7.94-15.05-2.22-28.869-7.98-54.633a82.9,82.9,0,0,1,.13,10.172c-1.17,6.553-7.43,19.952-13.47,30.907,3.88,6.519,9.14,16.027,10.2,21.244,1.73,8.455,5.18,27.833,8.28,36.641,0.3,0.84.64,1.868,1.03,3.036" class="cls-7" data-name="Fill 19" transform="translate(-935 -278.969)"/><path id="Fill_20" d="M1148.95,385l-13.98,1.836s-20.62,4.085-24.06,29.188c-2.46,18,7.83,46.809,15.53,72.963l-0.79,7.531s-8.97,10.5-12.48,19.007c-3.78,9.182-6.2,19.79-4.74,34.539,7.11,4.6,34.49,14.5,61.3,11.317s37.45-14.356,37.45-14.356l-19.33-47.65-1.38-9.006c4.62-2.83,23.29-36.149,25.42-47.821,0.63-3.464-1.43-41.57-6.16-48.476-2.17-3.151-10.93-7.019-10.93-7.019-1.31,7.11-2.28,27.607-14.25,49.126a3.307,3.307,0,0,1-5.99-.508c-5.3-14.882-17.13-38.666-25.61-50.671" class="cls-8" data-name="Fill 20" transform="translate(-935 -278.969)"/><path id="Fill_21" d="M1161.12,566.369s5.94,11.1,2.8,12.17-10.49,5.73-7,14.679,8.74,8.95,11.89,6.087,0-11.457,1.75-15.036,9.44,0,9.44-7.161S1174.9,561,1174.9,561l-13.78,5.37" class="cls-2" data-name="Fill 21" transform="translate(-935 -278.969)"/><path id="Fill_22" d="M1125.78,489c36.03,10.792,59.85,1.376,59.85,1.376l1.37,8.974c-37.67,9.631-62-2.847-62-2.847l0.78-7.5" class="cls-4" data-name="Fill 22" transform="translate(-935 -278.969)"/><path id="Fill_23" d="M1161.17,565.967s-3.65-6.141-8.45-21.124-9.76-42.3-11.72-48.294-20.94-45.526-24.49-59.98-6.66-38.527,15.35-44.343c9.17-2.425,10.7,15.145,15.14,28.718s15.67,60.622,17.27,69.258,4.07,7.962,7.46,25.911,8.95,45.785,8.2,47.819-18.22,4.5-18.76,2.035" class="cls-9" data-name="Fill 23" transform="translate(-935 -278.969)"/><path id="Fill_24" d="M1143,768h0m0-.014v0m0-.017c0-4.593-5.59-39.456-7.97-57.357-1.58-11.933-1.05-27.425-.81-41.033v0c-0.25,13.609-.77,29.1.81,41.035,2.38,17.9,7.97,52.764,7.97,57.357h0M1108.07,551.39a0.111,0.111,0,0,1-.01-0.056,0.111,0.111,0,0,0,.01.056m-0.01-.108c-0.01-.036-0.01-0.073-0.02-0.109,0.01,0.036.01,0.073,0.02,0.109m-0.02-.142a0.184,0.184,0,0,0-.01-0.073,0.184,0.184,0,0,1,.01.073m-0.01-.105c0-.036-0.01-0.073-0.01-0.109,0,0.036.01,0.073,0.01,0.109m-0.01-.17a0.085,0.085,0,0,1-.01-0.049,0.085,0.085,0,0,0,.01.049m-0.02-.16v0m8.27-40.26A111.669,111.669,0,0,1,1125.36,498a112.115,112.115,0,0,0-9.09,12.446h0" class="cls-1" data-name="Fill 24" transform="translate(-935 -278.969)"/><path id="Fill_25" d="M1151,787a98.374,98.374,0,0,1-3.32-15.795A9.7,9.7,0,0,1,1144,770v17h7" class="cls-10" data-name="Fill 25" transform="translate(-935 -278.969)"/><path id="Fill_26" d="M1147.72,771a87.4,87.4,0,0,1-.57-16.845c1.25-19.694-4.17-36.87-2.17-67.847l-10.7-16.687c-0.25,13.639-.77,29.166.8,41.124,2.35,17.942,7.88,52.882,7.88,57.486v0.029h0a1.936,1.936,0,0,0,1.06,1.563v0.011a9.969,9.969,0,0,0,3.7,1.165m2.48-159.618c4.12-3.172,10.36-5.072,17.8-5.072v-5.774a5.741,5.741,0,0,1-2.85.788c-2.69,0-5.66-2.043-7.91-7.7a14.579,14.579,0,0,1-.69-2.227H1117.2c0.98,2.979,2.01,6.029,3.05,9.108l11.54,4.033h-0.01l15.7,5.488a24.4,24.4,0,0,1,2.72,1.354m-21.07-28.976a126.619,126.619,0,0,1-3.57-24.137c-8.01-2.36-14.14-5.068-17.04-6.934a168.2,168.2,0,0,0,5.83,31.071h14.78M1108,543v0" class="cls-11" data-name="Fill 26" transform="translate(-935 -278.969)"/><path id="Fill_27" d="M1125.24,559c-0.16-3.425-.18-6.965-0.04-10.634,0.06-1.629.16-3.218,0.27-4.763-1.25-.573-2.58-1.251-4.01-2.048-3.54-1.973-8.11-4.359-12.95-6.813a75.4,75.4,0,0,0-.51,8.892h0v0.186c0.01,2.33.12,4.769,0.34,7.335,0,0,0,.006.01,0.009a0.425,0.425,0,0,0,.01.112v0.049a0.135,0.135,0,0,0,.01.062v0.11a0.041,0.041,0,0,1,.01.032,0.189,0.189,0,0,0,.01.074v0.033c0,0.037.01,0.074,0.01,0.11V551.8c0,0.018.01,0.038,0.01,0.057,0,0.035.01,0.071,0.01,0.106l0.09,0.061h0c2.85,1.877,8.86,4.6,16.73,6.977m4.94-39.77a72.685,72.685,0,0,1,7.82-16.9A57.394,57.394,0,0,1,1125.2,498a111.682,111.682,0,0,0-8.83,12.554l13.81,8.676" class="cls-1" data-name="Fill 27" transform="translate(-935 -278.969)"/><path id="Fill_28" d="M1185,655a222.035,222.035,0,0,1,3.01-22.467A139.213,139.213,0,0,0,1185,655m38-50.622A124.343,124.343,0,0,0,1220.6,590h-0.27c0.92,4.51,1.84,9.427,2.65,14.375l0.02,0" class="cls-1" data-name="Fill 28" transform="translate(-935 -278.969)"/><path id="Fill_29" d="M1183,765c2.84-1.825,5.16-5.585,6.98-10.57l-9.18-14.11L1183,765m11.34-61.737a101.71,101.71,0,0,0-1.65-10.814c-6.77-31.516,4.22-36.862,4.71-61.109,0.49-23.819,9.36-27.978,16.97-27.978a55.9,55.9,0,0,1,8.63,1.114c-0.81-4.982-1.72-9.933-2.64-14.475h-49.95c0.17,2.515.34,5.085-.41,6.859l18.12,35.971s-1.76,8.748-2.99,22.624c-0.47,7.638-.53,15.375-0.5,22.94l9.71,24.868" class="cls-11" data-name="Fill 29" transform="translate(-935 -278.969)"/><path id="Fill_30" d="M1148.19,386a35.144,35.144,0,0,0,8.95-3.125,35.143,35.143,0,0,1-8.95,3.123h0v0m8.95-3.126a0.142,0.142,0,0,0,.04-0.022,0.142,0.142,0,0,1-.04.022m0.04-.022a0.142,0.142,0,0,0,.04-0.022,0.142,0.142,0,0,1-.04.022m0.05-.025,0.03-.021c-0.01.008-.02,0.014-0.03,0.021m0.04-.023,0.03-.02-0.03.02m0.04-.024,0.03-.019-0.03.019m0.04-.024,0.03-.018-0.03.018m0.04-.024a0.039,0.039,0,0,0,.02-0.017,0.039,0.039,0,0,1-.02.017m0.03-.023,0.03-.018c-0.01.006-.02,0.013-0.03,0.018m0.05-.025a0.034,0.034,0,0,1,.02-0.015,0.034,0.034,0,0,0-.02.015m0.04-.024a0.034,0.034,0,0,1,.02-0.014,0.034,0.034,0,0,0-.02.014m0.04-.025a0.026,0.026,0,0,1,.02-0.012,0.026,0.026,0,0,0-.02.012m0.03-.024a0.041,0.041,0,0,0,.02-0.011,0.041,0.041,0,0,1-.02.011m0.04-.025a0.034,0.034,0,0,0,.02-0.011,0.034,0.034,0,0,1-.02.011m0.04-.023c0.01,0,.01-0.007.02-0.011-0.01,0-.01.007-0.02,0.011m0.04-.025a0.043,0.043,0,0,1,.02-0.01,0.043,0.043,0,0,0-.02.01m0.04-.023s0.01-.007.01-0.011-0.01.007-.01,0.011m0.03-.024a0.186,0.186,0,0,1,.02-0.01,0.186,0.186,0,0,0-.02.01m0.04-.025c0.01,0,.01-0.006.02-0.009-0.01,0-.01.006-0.02,0.009m0.04-.024a0.081,0.081,0,0,1,.01-0.009,0.081,0.081,0,0,0-.01.009m0.04-.025s0-.006.01-0.008c-0.01,0-.01.006-0.01,0.008m0.03-.025c0.01,0,.01,0,0.01-0.008s0,0-.01.008m0.04-.025a0.053,0.053,0,0,0,.01-0.006,0.053,0.053,0,0,0-.01.006m0.04-.024s0,0,.01-0.006c-0.01,0-.01,0-0.01.006m0.03-.025a0.053,0.053,0,0,0,.01-0.006,0.053,0.053,0,0,1-.01.006m0.04-.025s0,0,.01-0.006c-0.01,0-.01,0-0.01.006m0.03-.025c0.01,0,.01,0,0.01,0s0,0-.01,0m0.04-.026s0,0,.01,0c-0.01,0-.01,0-0.01,0m0.03-.024c0.01,0,.01,0,0.01,0s0,0-.01,0m0.04-.026v0m0.03-.024c0.01,0,.01,0,0.01,0s0,0-.01,0m0.04-.026v0m0.03-.024,0.01,0-0.01,0m0.04-.026v0m0.03-.026h0m0.04-.026h0m0.03-.024h0m0.03-.026h0m0.03-.026h0m0.46-.389h0m0.03-.026h0m0.06-.053h0m0.11-.108h0m0.02-.025h0m0.08-.081v0m0.02-.026c0.01,0,.01,0,0.01,0s0,0-.01,0m0.03-.03h0m0.1-.108v0m0.03-.029h0m0.02-.023v0m0.02-.031v0m0.06-.066v0m0.03-.038v0m0.03-.041v0m0.03-.036v0m0.03-.038s0-.006.01-0.01c-0.01,0-.01.008-0.01,0.01m0.03-.039s0.01-.01.01-0.015-0.01.01-.01,0.015m0.02-.033a0.051,0.051,0,0,0,.02-0.029,0.048,0.048,0,0,1-.02.029m0.03-.037a16.33,16.33,0,0,0,2.49-7.309h0a16.444,16.444,0,0,1-2.49,7.309m0.38-9.155a3.284,3.284,0,0,1,.1-0.72,3.284,3.284,0,0,0-.1.72m-5.26-3.944c0.06,0,.13,0,0.21-0.007-0.08,0-.15.007-0.21,0.007h0m2.49-.9c0.77-.568,1.33-1.194,2.13-1.2-0.8,0-1.36.631-2.13,1.2m2.14-1.2h0m-4.37-1.519v0m-0.56-.349c-0.03,0-.06,0-0.09,0,0.03,0,.06,0,0.09,0m-15.19-3.228-0.08,0,0.08,0m0,0,0.08,0h0l-0.08,0m0.4-.028c0.02,0,.04,0,0.06-0.006-0.02,0-.04,0-0.06.006m10.83-1.073h0m-13.05-2.474a0.029,0.029,0,0,0,.02-0.011,0.029,0.029,0,0,1-.02.011m0.04-.017,0.06-.025-0.06.025m0.07-.029,0.03-.014-0.03.014m0.05-.018c2.29-.863,3.35-0.8,3.72-2.188-0.37,1.385-1.43,1.324-3.72,2.188m3.76-2.33h0m0,0v0m-1.5-5.954a0.106,0.106,0,0,0-.01-0.054,0.106,0.106,0,0,1,.01.054m-4.02-1.417c0.5-.037.99-0.072,1.46-0.073-0.47,0-.96.036-1.46,0.073m1.47-.073h0M1131,332.519c0.17-1.251,1.27-1.523,2.57-1.523,0.49,0,1.02.041,1.53,0.081-0.51-.04-1.04-0.081-1.54-0.081-1.29,0-2.39.272-2.56,1.523m5.55-1.361h0m0.01,0a1.97,1.97,0,0,0,1.4-.364,1.97,1.97,0,0,1-1.4.364m-2.06-7.746a1.868,1.868,0,0,1,.07-0.528c0.61-2.412,4.72-1,6.31-2.835-1.59,1.832-5.7.422-6.31,2.834a1.88,1.88,0,0,0-.07.529m0.48-12.439a0.147,0.147,0,0,0-.01-0.013,0.147,0.147,0,0,1,.01.013m-0.02-.019c-1.8-1.641.13-5.836,2.7-5.836a2.445,2.445,0,0,1,.95.193,2.445,2.445,0,0,0-.95-0.193c-2.57,0-4.5,4.194-2.7,5.836m8.34-3.033c-0.03,0-.07,0-0.1,0,0.03,0,.07,0,0.1,0m0.01,0a1.5,1.5,0,0,0,1.09-.521,1.5,1.5,0,0,1-1.09.521m1.1-.532h0m0.03-.031a1.5,1.5,0,0,0,.28-1.061,1.5,1.5,0,0,1-.28,1.061m-4.36-1.065s-0.01-.007-0.01-0.011,0.01,0.007.01,0.011m-0.2-.146v0m-0.11-.085h0m-0.15-.112-0.09-.074,0.09,0.074m-0.16-.126a0.639,0.639,0,0,1-.08-0.064,0.639,0.639,0,0,0,.08.064m-0.08-.064a3.59,3.59,0,0,0-.44-0.291,3.59,3.59,0,0,1,.44.291m4.88-3.711a2.157,2.157,0,0,1,.16-0.947,2.157,2.157,0,0,0-.16.947m4.55-2.234a8.578,8.578,0,0,0,2.98-5.679,8.578,8.578,0,0,1-2.98,5.679m8.64-8.866h0m0.01,0c2.26,0,1.91-1.794,3.44-3.571-1.53,1.777-1.18,3.569-3.44,3.571m-0.24-.006h0m-10.69-3.107a4.284,4.284,0,0,1,4.17-4.733,4.284,4.284,0,0,0-4.17,4.733m14.4-.492,0.03-.038-0.03.038m2.93-.05h0m0.01,0a0.429,0.429,0,0,0,.32-0.157,0.429,0.429,0,0,1-.32.157m-2.89,0a0.053,0.053,0,0,1,.02-0.03,0.053,0.053,0,0,0-.02.03m0.07-.08a0.189,0.189,0,0,1,.02-0.02,0.189,0.189,0,0,0-.02.02m0.03-.032a1.563,1.563,0,0,1,1.1-.569,1.563,1.563,0,0,0-1.1.569m3.12-.052a0.014,0.014,0,0,0,.01-0.015,0.014,0.014,0,0,1-.01.015m0.02-.025c0.01,0,.01-0.007.01-0.01s0,0.007-.01.01m0.03-.03a0.609,0.609,0,0,0,.1-0.36,0.609,0.609,0,0,1-.1.36m-1.13-.121-0.03-.022,0.03,0.022m-0.08-.048a0.04,0.04,0,0,0-.02-0.012,0.04,0.04,0,0,1,.02.012m-0.05-.03h0m-0.8-.263h0m15.08-.929h0m-0.08,0a9.774,9.774,0,0,1-1.17-.073,9.774,9.774,0,0,0,1.17.073m0.15,0h0m0.05,0h0m0.06,0h0m0.05,0h0m0.06,0h0m0.09,0h0m0.05,0h0m0.06,0h0m0.05,0h0m0.06,0a0.034,0.034,0,0,1,.01,0,0.034,0.034,0,0,0-.01,0m0.05,0h0m0.14-.008a0.068,0.068,0,0,0,.02,0,0.068,0.068,0,0,1-.02,0m0.06,0h0m0.05,0h0m0.06,0h0m0.2-.016h0m0.05,0h0m0.05,0h0m0.05,0h0m-2.56-.011-0.01,0,0.01,0m2.77-.009h0m0.04,0h0m0.05,0h0m0.06-.006h0m0.3-.032h0m0.05-.007h0m0.2-.024h0m0.05-.007h0m0.05,0c0.01,0,.01,0,0.01,0s0,0-.01,0m0.05-.008h0m0.05-.006,0.03,0-0.03,0m0.08-.01,0.03,0-0.03,0m0.05-.007,0.03,0-0.03,0m0.05-.007,0.04-.005-0.04.005m0.05-.007a0.35,0.35,0,0,0,.05-0.007,0.35,0.35,0,0,1-.05.007m0.06-.007c0.35-.048.69-0.1,1.02-0.145-0.33.047-.67,0.1-1.02,0.145m-5.39-.182h0m-0.03-.011a5.292,5.292,0,0,1-1.45-.8,5.292,5.292,0,0,0,1.45.8m-1.5-.837v0m-0.11-.087v0m-0.05-.04c-0.01-.009-0.02-0.019-0.03-0.027,0.01,0.008.02,0.018,0.03,0.027m-0.03-.031c-2.19-1.851-3.82-5.268-5.9-5.268a2.858,2.858,0,0,0-1.99,1.03,4.459,4.459,0,0,0-1.46,3.2,4.459,4.459,0,0,1,1.46-3.2,2.86,2.86,0,0,1,1.99-1.029c2.08,0,3.71,3.416,5.9,5.267m-22.16-1.165h0" class="cls-1" data-name="Fill 30" transform="translate(-935 -278.969)"/><path id="Fill_31" d="M1152,390.044c0.03-.015.07-0.029,0.1-0.044-0.03.013-.07,0.029-0.1,0.043h0" class="cls-3" data-name="Fill 31" transform="translate(-935 -278.969)"/><path id="Fill_32" d="M1149,385c4.63-1.012,9.91-2.626,12-5a0.384,0.384,0,0,0-.03.028v0c-0.01.009-.01,0.017-0.02,0.025v0.006l-0.03.022h0a0.051,0.051,0,0,1-.02.027v0a0.22,0.22,0,0,0-.05.052l-0.06.055h0c-0.01.009-.01,0.019-0.02,0.028s-0.01,0-.01,0a0.041,0.041,0,0,1-.02.023v0l-0.06.052a0.051,0.051,0,0,1-.02.027h0l-0.03.026h0l-0.12.107h0l-0.06.053h0l-0.03.025v0c-0.14.123-.29,0.243-0.45,0.363l-0.03.025h-0.01l-0.03.025h0l-0.03.024v0a0.12,0.12,0,0,0-.04.023h0l-0.03.025h-0.01l-0.03.023v0l-0.03.024-0.01,0-0.03.022v0l-0.03.023c-0.01,0-.01,0-0.01,0l-0.03.022a0.017,0.017,0,0,1-.01,0l-0.03.023v0l-0.03.021c-0.01,0-.01,0-0.01,0s-0.02.013-.03,0.021a0.024,0.024,0,0,0-.01,0l-0.03.019v0a0.123,0.123,0,0,0-.04.02v0.006l-0.03.018c-0.01,0-.01,0-0.01.007a0.238,0.238,0,0,0-.03.018s-0.01,0-.01.006l-0.03.017s-0.01.005-.01,0.008a0.228,0.228,0,0,0-.03.017s-0.01.006-.01,0.008a0.031,0.031,0,0,0-.02.016,0.176,0.176,0,0,0-.02.009,0.028,0.028,0,0,0-.02.015,0.176,0.176,0,0,0-.02.009c-0.01,0-.01.01-0.02,0.015a0.176,0.176,0,0,0-.02.009c-0.01,0-.01.009-0.02,0.014s-0.01.007-.02,0.011a0.03,0.03,0,0,1-.02.013,0.186,0.186,0,0,1-.02.01,0.034,0.034,0,0,1-.02.014,0.034,0.034,0,0,1-.02.011,0.026,0.026,0,0,1-.02.012,0.034,0.034,0,0,1-.02.011,0.034,0.034,0,0,1-.02.014c-0.01,0-.01.007-0.02,0.01a0.034,0.034,0,0,1-.02.013,0.106,0.106,0,0,0-.02.012,0.2,0.2,0,0,1-.02.011c-0.01.005-.01,0.008-0.02,0.013s-0.01.007-.02,0.011a0.03,0.03,0,0,0-.02.014l-0.02.008a0.228,0.228,0,0,0-.03.017s0,0-.01.006-0.02.01-.03,0.017-0.01,0-.01.006l-0.03.018a0.047,0.047,0,0,1-.01,0l-0.03.019c-0.01,0-.01,0-0.01,0s-0.03.012-.04,0.019v0a0.384,0.384,0,0,0-.04.021v0a0.121,0.121,0,0,0-.04.022h0c-0.02.007-.03,0.014-0.05,0.022h0A38.725,38.725,0,0,1,1149,385h0" class="cls-10" data-name="Fill 32" transform="translate(-935 -278.969)"/><path id="Fill_33" d="M1151.85,388l0.12-.052c14.88-6.45,16.43-15.144,15.96-22.948-0.48,2.31-1.04,4.384-1.63,5.157a3.786,3.786,0,0,1-2.82,1.417,15.424,15.424,0,0,1-2.57,7.137s0,0.006-.01.008a0.049,0.049,0,0,1-.02.028c0,0.006-.01.012-0.01,0.018a0.014,0.014,0,0,0-.01.014l-0.03.029v0.009c-0.01.011-.02,0.022-0.03,0.031v0.007l-0.03.031v0c-0.01.011-.02,0.023-0.03,0.033a0.061,0.061,0,0,0-.01.007l-0.03.032v0l-0.03.034c-2.03,2.317-7.16,3.891-11.67,4.878,0.91,1.251,1.87,2.633,2.85,4.121" class="cls-12" data-name="Fill 33" transform="translate(-935 -278.969)"/><path id="Fill_34" d="M1162.08,374h0a3.594,3.594,0,0,0,2.73-1.461,18.133,18.133,0,0,0,1.57-5.315c-0.1-1.621-.27-3.2-0.43-4.722-1.03-9.763-13.56-14.184-13.73-21.352s2.68-3,4.42-8.531-2.43-3.794-1.22-8.057,5.94-2.661,9.73-5.157-2.95-4.822-1.73-9.643,13.38-2.5,12.85-7.68-3.33-1.369-3.11-5.535,3.69-2.5,6.7-3.334c1.33-.367,1.31-3.959.87-7.862l-1.01.145h-0.01l-0.05.008h-0.01c-0.01,0-.03,0-0.04.006l-0.02,0-0.03,0a0.062,0.062,0,0,0-.02,0l-0.03,0-0.05.006-0.03,0-0.03,0h-0.02c-0.01,0-.03,0-0.04.007h-0.01l-0.04,0h-0.01l-0.04.006h-0.01c-0.06.009-.13,0.016-0.19,0.025h-0.01a0.276,0.276,0,0,0-.04.006h-0.01l-0.3.033h0a0.273,0.273,0,0,1-.04,0h-0.01l-0.04,0h-0.01c-0.02,0-.03,0-0.05,0h0c-0.07.006-.13,0.014-0.2,0.019h0l-0.05,0h0l-0.05,0a0.034,0.034,0,0,1-.01,0l-0.04,0h0c-0.07.007-.14,0.011-0.2,0.015h-0.01l-0.04,0a0.018,0.018,0,0,0-.01,0l-0.04,0h-0.02l-0.04,0h-0.01l-0.14.008h-0.09a0.068,0.068,0,0,0-.02,0h-0.06l-0.03,0h-0.07l-0.07,0h-0.31c-0.01,0-.01,0-0.01,0l-0.07,0a9.482,9.482,0,0,1-1.16-.073h-0.01v0a6.53,6.53,0,0,1-1.41-.334v0l-0.03-.01a5.2,5.2,0,0,1-1.44-.8,0.2,0.2,0,0,1-.05-0.041c-0.01,0-.01,0-0.01,0-0.03-.027-0.07-0.055-0.1-0.083v0c-0.02-.012-0.03-0.025-0.05-0.037l-0.03-.027s0,0-.01,0c-2.17-1.863-3.79-5.3-5.86-5.3a2.8,2.8,0,0,0-1.97,1.035,4.5,4.5,0,0,0-1.46,3.222c0,1.528.83,2.774,0.83,3.5a0.62,0.62,0,0,1-.1.364c-0.01,0-.01.007-0.01,0.011s-0.01.006-.01,0.008a0.047,0.047,0,0,1-.01.01s0,0.008-.01.011-0.01.01-.01,0.015-0.01.006-.01,0.01a0.442,0.442,0,0,1-.32.157h-0.02a1.671,1.671,0,0,1-.72-0.344c-0.01-.008-0.03-0.015-0.04-0.022l-0.03-.018a0.035,0.035,0,0,0-.01-0.008c-0.01,0-.01-0.009-0.02-0.013l-0.03-.018h0a1.587,1.587,0,0,0-.8-0.264h-0.01a1.563,1.563,0,0,0-1.09.573c-0.01,0-.01.007-0.01,0.012a0.032,0.032,0,0,0-.02.02c-0.02.016-.03,0.033-0.05,0.05l-0.03.031s-0.01.01-.01,0.015-0.02.024-.03,0.038l-0.03.034c-1.53,1.788-1.17,3.592-3.43,3.594h0c-0.08,0-.15,0-0.23-0.006h-0.02c-2.56-.134-2.08-4.643-4.25-6.964a2.953,2.953,0,0,0-2.2-.926h-0.02a4.3,4.3,0,0,0-4.14,4.763,0.283,0.283,0,0,1,.01.091c0.52,3.86,5.22,3.583,5.22,6.112v0.138a8.676,8.676,0,0,1-2.96,5.714c-1.13.983-3.65,0-4.34,1.252-0.01.013-.02,0.029-0.03,0.044a2.34,2.34,0,0,0-.16.953c0,1.242.46,3.07,0.46,4.275a1.569,1.569,0,0,1-.27,1.068,0.3,0.3,0,0,0-.03.031h0c-0.01,0-.01.007-0.01,0.009a1.512,1.512,0,0,1-1.09.525h-0.01c-0.03,0-.07,0-0.1,0-0.66-.041-1.58-0.5-3.1-1.634a0.2,0.2,0,0,1-.02-0.011c-0.05-.044-0.12-0.09-0.18-0.136v0c-0.03-.027-0.07-0.055-0.11-0.084h0a1.239,1.239,0,0,1-.14-0.11,0.868,0.868,0,0,1-.1-0.076c-0.02-.018-0.05-0.035-0.07-0.052s-0.05-.044-0.08-0.064a4.532,4.532,0,0,0-.43-0.294,2.912,2.912,0,0,0-.33-0.158,2.448,2.448,0,0,0-.95-0.195c-2.56,0-4.47,4.222-2.68,5.874,0,0,0,0,.01.006a0.147,0.147,0,0,1,.01.013l0.03,0.022c2.07,1.807,6.43,4.369,6.44,7.34a3.039,3.039,0,0,1-.1.784,2.5,2.5,0,0,1-.5.988c-1.59,1.843-5.67.426-6.28,2.853a2.339,2.339,0,0,0-.06.532c-0.01,2.411,3.55,5.459,3.61,6.933v0.042a0.633,0.633,0,0,1-.16.439,0.013,0.013,0,0,0-.01.014,1.96,1.96,0,0,1-1.4.367h-0.03c-0.43,0-.92-0.041-1.42-0.081s-1.03-.082-1.53-0.082c-1.28,0-2.38.274-2.55,1.532,0,0.041-.01.083-0.01,0.126a1.327,1.327,0,0,0-.01.2c0,2.874,5.08,4.7,5.08,7.373a2.408,2.408,0,0,1-.03.375c-0.47,2.635-4.34,2.984-4.35,4.882a1.859,1.859,0,0,0,.18.742,0.02,0.02,0,0,0,.01.02c0.37,0.825,1.29,1.022,2.39,1.022,0.49,0,1.03-.04,1.56-0.081l0.11-.009c0.5-.038.99-0.072,1.45-0.074h0.02c1.26,0,2.29.265,2.52,1.446a0.1,0.1,0,0,1,.01.054v0.019c0,0.005.01,0.009,0.01,0.014a3.428,3.428,0,0,1,.03.437c0.01,2.568-4.04,2.181-4.04,3.959a1.488,1.488,0,0,0,.1.515,1.678,1.678,0,0,0,1.81,1.052,9.1,9.1,0,0,0,1.71-.22,8.745,8.745,0,0,1,1.4-.22c0.34,0,.52.1,0.48,0.407a0.034,0.034,0,0,0-.01.029h0a0.024,0.024,0,0,1-.01.022,0.469,0.469,0,0,1-.03.12c-0.37,1.394-1.42,1.334-3.7,2.2-0.01,0-.01,0-0.01,0a0.177,0.177,0,0,0-.04.014s0,0-.01,0l-0.06.026s-0.01,0-.01.006l-0.03.012c-2.01.928,0.06,3.512,1.74,3.6l0.08,0h0l0.08,0h0.01c0.08,0,.18-0.014.3-0.026,0.02,0,.04,0,0.06-0.006a103.529,103.529,0,0,1,10.71-1.074h0c1.83,0,3.17.238,3.25,0.927a1.016,1.016,0,0,1,.01.173c0.01,1.658-2.93,2.2-2.93,3.134a0.875,0.875,0,0,0,.4.623,1.564,1.564,0,0,0,.99.41,2.1,2.1,0,0,0,1.14-.457,2.057,2.057,0,0,1,.99-0.459c0.03,0,.05,0,0.08,0a0.9,0.9,0,0,1,.54.322s0,0,.01.006a0.013,0.013,0,0,0,.01.014v0.009c1.01,1.219-2.37,3.64-.26,3.64,0.06,0,.13,0,0.21-0.007l0.03,0a4.034,4.034,0,0,0,2.24-.894c0.76-.572,1.32-1.2,2.12-1.207h0.01a1.846,1.846,0,0,1,.63.124,1.307,1.307,0,0,1,1.05,1.31,30.5,30.5,0,0,1-.96,3.921,3.259,3.259,0,0,0-.09.724,1.79,1.79,0,0,0,1.99,1.855h0.1v0" class="cls-13" data-name="Fill 34" transform="translate(-935 -278.969)"/><path id="Fill_35" d="M1138.69,492c-5.46-12.749-19.34-42.779-22.32-54.977-3.54-14.48-6.63-38.6,15.27-44.424a6.449,6.449,0,0,1,1.64-.226c2.05,0,3.67,1.156,5.02,3.092a32.054,32.054,0,0,1,8.42-4.554c1.54-.55,2.96-1.12,4.28-1.709v0c-0.96-1.516-1.9-2.924-2.79-4.2h-0.01l-13.9,1.833s-20.52,4.079-23.93,29.146a44.508,44.508,0,0,0-.37,5.913c0.01,17.985,8.94,43.532,15.81,66.946A128.172,128.172,0,0,0,1138.69,492" class="cls-1" data-name="Fill 35" transform="translate(-935 -278.969)"/><path id="Fill_36" d="M1165.1,599a6.916,6.916,0,0,0,3.02-.714v-6.01l2.3,3.965c0.78-1.615.61-3.953,0.42-6.241H1156a11.709,11.709,0,0,0,.72,2.019c2.39,5.128,5.54,6.981,8.38,6.981" class="cls-3" data-name="Fill 36" transform="translate(-935 -278.969)"/><path id="Fill_37" d="M1138.31,501a33.255,33.255,0,0,1,2.69-3.593c-0.31-.962-1.05-2.77-2.09-5.194A130.108,130.108,0,0,1,1125.79,489l-0.79,7.641A60.965,60.965,0,0,0,1138.31,501" class="cls-13" data-name="Fill 37" transform="translate(-935 -278.969)"/><path id="Fill_38" d="M1165,575h0a26.421,26.421,0,0,0-2.87-6.545A2.423,2.423,0,0,1,1161,568c3.87,6.2,4,7,4,7" class="cls-11" data-name="Fill 38" transform="translate(-935 -278.969)"/><path id="Fill_39" d="M1164.43,575c0.07-.024,2.01-0.7,1.48-6.565a1.65,1.65,0,0,1-.02-0.224c-0.45.023-.87,0.034-1.28,0.034A11.045,11.045,0,0,1,1162,568a32.053,32.053,0,0,1,2.43,7" class="cls-3" data-name="Fill 39" transform="translate(-935 -278.969)"/><path id="Fill_40" d="M1165.57,567c0.46,0,.93-0.011,1.43-0.034-0.54-5.383-1.84-14.887-7.57-29.017-2.9.83-5.59,1.6-7.87,2.246,3.41,11,7.56,21.459,9.88,25.772,0.05,0.094.1,0.188,0.15,0.28a2.151,2.151,0,0,0,1.07.5,13.34,13.34,0,0,0,2.91.252m-19.41-49.56,4.4-.991c-6-17.935-2.61-23.3-7.74-31.013-30.12-45.232-21.55-77.439-4.14-90.349-1.36-1.934-3-3.087-5.07-3.087a6.505,6.505,0,0,0-1.65.225c-22.13,5.817-19.01,29.89-15.43,44.344,3.01,12.177,17.03,42.152,22.55,54.878,1.03,2.381,1.76,4.158,2.07,5.1,0,0,2.7,7.1,5.01,20.891" class="cls-14" data-name="Fill 40" transform="translate(-935 -278.969)"/><path id="Fill_41" d="M1178.5,472a2.5,2.5,0,1,0-2.5-2.5,2.5,2.5,0,0,0,2.5,2.5" class="cls-1" data-name="Fill 41" transform="translate(-935 -278.969)"/><path id="Fill_42" d="M1178.5,480a2.5,2.5,0,1,0-2.5-2.5,2.5,2.5,0,0,0,2.5,2.5" class="cls-1" data-name="Fill 42" transform="translate(-935 -278.969)"/><path id="Fill_43" d="M1178.5,489a2.5,2.5,0,1,0-2.5-2.5,2.5,2.5,0,0,0,2.5,2.5" class="cls-1" data-name="Fill 43" transform="translate(-935 -278.969)"/><path id="Fill_44" d="M938.044,521a3.019,3.019,0,0,0-2.092,5.21c5.372,5.031,12.89,13.251,16.525,22.632C958.487,564.349,981.819,644,981.819,644L985,521H938.044" class="cls-9" data-name="Fill 44" transform="translate(-935 -278.969)"/><path id="Fill_45" d="M1016.6,473l29.69,5.13,3.34-2.234,11.06,12.284L1081,587.54,1040.38,602,1009,477.581l7.6-4.581" class="cls-8" data-name="Fill 45" transform="translate(-935 -278.969)"/><path id="Fill_46" d="M1201,769.769l13.7-10.419,4.34,0.816c10.07,0.724,21.92-4.713,31.47-9.606s11.49-1.268,11.49-1.268L1208.07,783,1201,769.769" class="cls-15" data-name="Fill 46" transform="translate(-935 -278.969)"/><path id="Fill_47" d="M1212.6,785l49.4-32.08V749l-54,33.149,4.6,2.852" class="cls-5" data-name="Fill 47" transform="translate(-935 -278.969)"/><path id="Fill_48" d="M1215,758.062L1211.57,752,1197,761.075l4.39,6.925,13.61-9.938" class="cls-5" data-name="Fill 48" transform="translate(-935 -278.969)"/><path id="Fill_49" d="M1094.93,762s17.6,0.119,20.3,4.578,23.46,9.638,32.73,11.205,7.98,4.217,7.98,4.217L1092,780.193,1094.93,762" class="cls-15" data-name="Fill 49" transform="translate(-935 -278.969)"/><path id="Fill_50" d="M1191,508.654L1202.95,506l4.05,17.512L1191.86,527,1191,508.654" class="cls-8" data-name="Fill 50" transform="translate(-935 -278.969)"/><path id="Fill_51" d="M1093.47,784h59.71l2.82-3.47L1092,779l1.47,5" class="cls-5" data-name="Fill 51" transform="translate(-935 -278.969)"/><path id="Fill_52" d="M1201,505.292L1204.93,522s7.45-.019,9.89-0.137,9.31-.214,13.64-4.986c4.55-5.021-1-15.328,3.65-17.478a47.755,47.755,0,0,0,7.27-4.209c2.88-1.611,1.7-4.272-1.79-2.931-2.24.865-10.25,3.536-14.95,5.647s-7.66-3.113-6.68-6.174c1.08-3.385-3.26-7.373-4.2-5.028-0.89,2.193,1.2,8.289-2.38,13.583a11.875,11.875,0,0,1-8.38,5" class="cls-16" data-name="Fill 52" transform="translate(-935 -278.969)"/><path id="Fill_53" d="M1053,470l16.72,84,1.28-44.938a1.875,1.875,0,0,0-1.17-1.787l-6.61-2.627,5.87-1.97a1.864,1.864,0,0,0,1.24-2.061l-3.42-21.626L1053,470" class="cls-17" data-name="Fill 53" transform="translate(-935 -278.969)"/><path id="Fill_54" d="M1021.22,466l-5.22,8c10.36,12.941,27,20,27,20V481.529c-10.09-1.146-21.78-15.529-21.78-15.529" class="cls-5" data-name="Fill 54" transform="translate(-935 -278.969)"/><path id="Fill_55" d="M1022.05,510.262a3.032,3.032,0,0,0,3.09,1l10-2.579-4.07,6.44a3.094,3.094,0,0,0,.2,3.587C1038.9,528.206,1047,559,1047,559s-0.77-33.59-6.05-47.258c-6.16-15.95-23.01-42.741-23.01-42.741l-16.43,9.435a3.037,3.037,0,0,0-.86,4.5l21.4,27.326" class="cls-17" data-name="Fill 55" transform="translate(-935 -278.969)"/><path id="Fill_56" d="M1047,488.988L1056.66,568l12.34-4.572L1052.41,487l-5.41,1.988" class="cls-4" data-name="Fill 56" transform="translate(-935 -278.969)"/><path id="Fill_57" d="M1117,572v10.669s18.84,0.871,29.12-.214,7.55-4.74,7.55-4.74L1117,572" class="cls-16" data-name="Fill 57" transform="translate(-935 -278.969)"/><path id="Fill_58" d="M1043,482.153V489.2c6.01,3.069,9-3.626,9-3.626l-5.16-4.348a3.345,3.345,0,0,0-3.84.932" class="cls-4" data-name="Fill 58" transform="translate(-935 -278.969)"/><path id="Fill_59" d="M1050.14,466c1.12,5.937-2.14,14.89-2.14,14.89l7.8,7.11c1.17-8.94-3.19-17.369-3.19-17.369L1050.14,466" class="cls-8" data-name="Fill 59" transform="translate(-935 -278.969)"/><path id="Fill_60" d="M1203,522a2,2,0,1,0-2,2,2,2,0,0,0,2-2" class="cls-18" data-name="Fill 60" transform="translate(-935 -278.969)"/><path id="Fill_61" d="M1016.6,473l29.69,5.13,3.34-2.234,11.06,12.284L1081,587.54,1040.38,602,1009,477.581l7.6-4.581" class="cls-8" data-name="Fill 61" transform="translate(-935 -278.969)"/><path id="Fill_62" d="M1067.76,582L1050,595.456l67.47,48.155L1195.24,764,1213,752.669s-44.39-114.723-49.18-126.585-16.52-16.465-16.52-16.465Z" class="cls-19" data-name="Fill 62" transform="translate(-935 -278.969)"/><path id="Fill_63" d="M1068.96,414.432s0.82,22.082-5.03,29.64c-2.34,3.016-6.87,3.415-11.48,2.808-2.17,7.263-4.81,18.025-2.56,21.4,2.34,3.5-8.66,19.721-8.66,19.721L1019,472.176l4.56-23.5-3.51-22.79,14.78-2.3L1032.1,409l36.86,5.432" class="cls-16" data-name="Fill 63" transform="translate(-935 -278.969)"/><path id="Fill_64" d="M1191.37,509.316L1196,529.6s-47.39,13.707-50.94,14.652-8.96,4.22-22.97-3.329c-7.3-3.932-18.92-9.526-28.38-13.984a7.42,7.42,0,0,0-10.55,5.891l-5.18,48.668s15.85,15.746,20.66,19.637c0,0-8.72,8.14-12.82,8.847S1073,587.338,1073,587.338l-8.19-76.254-4.81-9.73L1063.74,478l23.73,14.314,48.63,29.5,55.27-12.5" class="cls-20" data-name="Fill 64" transform="translate(-935 -278.969)"/><path id="Fill_65" d="M1031.71,476a16.85,16.85,0,0,0,7.66-9.451,28.866,28.866,0,0,0,1.72-7.964c-3.5-2.129-6.62-5.792-7.74-12.042-2.45-13.809-1.4-11.19-2.45-15-0.52-1.85-1.64-2.83-2.73-2.83-1.16,0-2.3,1.1-2.66,3.425-0.7,4.525-.94,9.881,2.58,11.548s2.57,6.428,2.57,6.428a28.427,28.427,0,0,1-2.22,6.905c-0.28.492-.57,1-0.87,1.457,4.17,7.759,6.72,13.256,3.49,16.987,0.21,0.179.43,0.358,0.65,0.537M1024,459.049l0.01-.046-0.01.046m19.08-17.041c2.15-2.673,4.4-5.238,3.56-8.614-1.37-5.456.03-10.251,5.96-10.251a16.266,16.266,0,0,1,4.12.608,31.526,31.526,0,0,0,8.14,1.112,23.155,23.155,0,0,0,6.05-.746c0.05-1.38.08-2.642,0.09-3.724a20.776,20.776,0,0,1-6.13.861,39.882,39.882,0,0,1-14.42-3.163c-4.21-1.653-7.34-3.091-9.6-3.091a3.429,3.429,0,0,0-2.23.71c-2.22,1.787-2.69,5.834-1.52,10.953s5.97,8.571,5.74,12.857a6.75,6.75,0,0,0,.24,2.488" class="cls-21" data-name="Fill 65" transform="translate(-935 -278.969)"/><path id="Fill_66" d="M1029.46,447.836s0.94-4.7-2.58-6.343-3.29-6.928-2.59-11.392,4.35-4.345,5.41-.587,0,1.175,2.46,14.8,14.8,14.8,19.25,14.682,15.58-4.95,15.58-11.762-0.95-8.439-6.59-9.026-10.39,3.406-13.56,3.641-5.4-.235-5.16-4.463-4.58-7.634-5.76-12.684-0.7-9.043,1.53-10.806,6.02,0.089,11.86,2.35c19.9,7.7,28.81-.264,31.23-8.557,2.46-8.449,2.66-18.509-6.28-19.524-5.72-.647-8.33.754-10.23,2.154-1.96,1.449-3.15,2.9-6.23,2.08-2.38-.631-6.6-2.579-12.72-1.991-7.62.731-23.84,4.932-26.89,13.036-2.06,5.449-4.82,0-5.17,16.09a68.883,68.883,0,0,0,7.75,34.06c3.41,6.46,5.05,3.522,6.46,1.057a27.5,27.5,0,0,0,2.23-6.812" class="cls-4" data-name="Fill 66" transform="translate(-935 -278.969)"/><path id="Fill_67" d="M1201,769.769l13.7-10.419,4.34,0.816c10.07,0.724,21.92-4.713,31.47-9.606s11.49-1.268,11.49-1.268L1208.07,783,1201,769.769" class="cls-22" data-name="Fill 67" transform="translate(-935 -278.969)"/><path id="Fill_68" d="M1212.6,785l49.4-32.08V749l-54,33.149,4.6,2.852" class="cls-5" data-name="Fill 68" transform="translate(-935 -278.969)"/><path id="Fill_69" d="M1215,758.062L1211.57,752,1197,761.075l4.39,6.925,13.61-9.938" class="cls-8" data-name="Fill 69" transform="translate(-935 -278.969)"/><path id="Fill_70" d="M1129.92,637.762a18.5,18.5,0,0,0-12.67-19.28L1048.72,596,982,645.26l14.854,11.077,83.466-1.414L1096.11,769h20.75S1126.4,675.964,1129.92,637.762Z" class="cls-23" data-name="Fill 70" transform="translate(-935 -278.969)"/><path id="Fill_71" d="M1009.19,474l27.27,33.014,3.87,16.044L1059,613.213s-29.01,21.366-42.4,28.643-29.367,11.035-35.24,1.174-8.9-32.9-9.866-50.009c-1.942-34.415,2.232-70.08,5.755-85.223s8.859-20.113,15.631-24.144C1000.81,478.934,1009.19,474,1009.19,474Z" class="cls-23" data-name="Fill 71" transform="translate(-935 -278.969)"/><path id="Fill_72" d="M1094.93,762s17.6,0.119,20.3,4.578,23.46,9.638,32.73,11.205,7.98,4.217,7.98,4.217L1092,780.193,1094.93,762" class="cls-22" data-name="Fill 72" transform="translate(-935 -278.969)"/><path id="Fill_73" d="M1053,470l16.72,84,1.28-44.938a1.875,1.875,0,0,0-1.17-1.787l-6.61-2.627,5.87-1.97a1.864,1.864,0,0,0,1.24-2.061l-3.42-21.626L1053,470" class="cls-24" data-name="Fill 73" transform="translate(-935 -278.969)"/><path id="Fill_74" d="M1021.22,466l-5.22,8c10.36,12.941,27,20,27,20V481.529c-10.09-1.146-21.78-15.529-21.78-15.529" class="cls-5" data-name="Fill 74" transform="translate(-935 -278.969)"/><path id="Fill_75" d="M1022.05,510.262a3.032,3.032,0,0,0,3.09,1l10-2.579-4.07,6.44a3.094,3.094,0,0,0,.2,3.587C1038.9,528.206,1047,559,1047,559s-0.77-33.59-6.05-47.258c-6.16-15.95-23.01-42.741-23.01-42.741l-16.43,9.435a3.037,3.037,0,0,0-.86,4.5l21.4,27.326" class="cls-25" data-name="Fill 75" transform="translate(-935 -278.969)"/><path id="Fill_76" d="M1117,568.81l-8.99-.81L1108,581.9l8.84,0.105,0.16-13.19" class="cls-8" data-name="Fill 76" transform="translate(-935 -278.969)"/><path id="Fill_77" d="M1047,488.988l5.48-1.988L1068,563.893,1056.78,568s-5.63-20.927-5.01-40.5-4.77-38.51-4.77-38.51" class="cls-22" data-name="Fill 77" transform="translate(-935 -278.969)"/><path id="Fill_78" d="M1043.6,559.919c-8.1-25.9-33.12-58.341-38.93-65.4-10.316-12.526-29.582,10.855-20.137,31.216,5.587,12.047,27.077,39.2,34.037,49.419s10.86,7.522,10.86,7.522L1109,581.5V567.4l-65.4-7.481" class="cls-20" data-name="Fill 78" transform="translate(-935 -278.969)"/><path id="Fill_79" d="M1043,481.748v7.462c6.01,3.01,9-3.556,9-3.556L1046.37,481a6.632,6.632,0,0,1-3.37.748" class="cls-22" data-name="Fill 79" transform="translate(-935 -278.969)"/><path id="Fill_80" d="M1050.45,466c0.42,5.815-2.45,14.794-2.45,14.794l7.8,7.206c1.17-9.06-3.19-17.6-3.19-17.6l-2.16-4.4" class="cls-8" data-name="Fill 80" transform="translate(-935 -278.969)"/><path id="Fill_81" d="M997,657l-10.6-8.147h0L997,657m-12.373-9.51,0,0L982,645.469l2.627,2.02M982,645.469l0.616-.469-0.616.469" class="cls-1" data-name="Fill 81" transform="translate(-935 -278.969)"/><path id="Fill_82" d="M1120,599l-6-2,6,2" class="cls-1" data-name="Fill 82" transform="translate(-935 -278.969)"/><path id="Fill_83" d="M1131,603l-12-4,12,4h0" class="cls-26" data-name="Fill 83" transform="translate(-935 -278.969)"/><path id="Fill_84" d="M1055.14,590.755L1055,590h1l-0.86.755" class="cls-1" data-name="Fill 84" transform="translate(-935 -278.969)"/><path id="Fill_85" d="M1112.68,616a22.473,22.473,0,0,1,19.3-13.04H1132l-11.64-3.977-6.85-2.341L1094.07,590h-6.26c4.14,3.936,8.45,7.953,10.59,9.659,0,0-6.7,6.167-11.11,8.165L1112.68,616m-30-9.662c-2.9-3.713-6.36-11.562-8.33-16.338h-18.13l-1.22.909,1.47,6.99,26.21,8.439" class="cls-25" data-name="Fill 85" transform="translate(-935 -278.969)"/><path id="Fill_86" d="M1086.92,608c4.4-2.016,11.08-8.244,11.08-8.244-2.13-1.723-6.44-5.78-10.56-9.755H1074c1.97,4.824,5.42,12.75,8.31,16.5l4.61,1.5" class="cls-25" data-name="Fill 86" transform="translate(-935 -278.969)"/><path id="Fill_89" d="M1018,469h0l2.56-4.116L1022,457l-1.44,7.885L1018,469" class="cls-1" data-name="Fill 89" transform="translate(-935 -278.969)"/><path id="Fill_90" d="M1029.4,474c3.53-3.733.74-9.235-3.82-17a2.853,2.853,0,0,1-2.1,1.439,2.7,2.7,0,0,1-1.8-.911l-0.01.047-1.67,7.935,0.04-.053A76.509,76.509,0,0,0,1029.4,474" class="cls-27" data-name="Fill 90" transform="translate(-935 -278.969)"/><path id="Fill_91" d="M1018,404c3.06-8.08,19.35-12.27,27-13-7.66.585-23.94,4.919-27,13" class="cls-1" data-name="Fill 91" transform="translate(-935 -278.969)"/><path id="Fill_92" d="M1024.37,458a2.6,2.6,0,0,0,1.91-1.415c-1.23-2.25-2.59-4.7-3.99-7.346-6.12-11.593-3.3-29.744,1.77-39.324,6.99-13.179,27.13-3.114,29.94-17.812a34.887,34.887,0,0,0-7.81-1.1c-0.44,0-.88.015-1.3,0.048-7.57.73-23.7,4.922-26.73,13.008-2.04,5.437-4.79,0-5.14,16.055-0.01.565-.02,1.123-0.02,1.676,0,1.168.03,2.31,0.08,3.428a68.041,68.041,0,0,0,7.64,28.882,13.537,13.537,0,0,0,2.01,2.993V457.1a2.4,2.4,0,0,0,1.64.9" class="cls-25" data-name="Fill 92" transform="translate(-935 -278.969)"/><path id="Fill_93" d="M996.861,656l16.149-.275a48.606,48.606,0,0,1-7.54-7.436,36.786,36.786,0,0,1-10.769,1.868,15.859,15.859,0,0,1-8.34-2.04l10.5,7.883m-12.26-9.2a11.575,11.575,0,0,1-1.991-2.406l-0.61.455,2.6,1.951M1113,616.451l-25.24-8.335-4.59-1.514-26.05-8.6,2.31,11.232c15.97,0.726,33.25.509,53.57,7.22" class="cls-25" data-name="Fill 93" transform="translate(-935 -278.969)"/><path id="Fill_94" d="M993.558,649a36.881,36.881,0,0,0,10.722-1.847C993.625,634.344,987.011,615.719,986.3,608c-0.779-8.44.03-22.255,8.623-22.255,3.063,0,7.12,1.756,12.44,6.136,16.85,13.872,32.94,15.832,50.64,16.632l-3.76-18.16-0.19-.917h-37.74a8.942,8.942,0,0,1-8.95-8.945h16.43l-0.09-.07a15.214,15.214,0,0,1-4.39-4.66c-0.35-.476-0.71-0.985-1.08-1.532-0.14-.208-0.29-0.425-0.44-0.647-1.73-2.424-4.44-6.156-7.54-10.42-4.66-6.339-10.23-13.862-15.11-20.889-0.227-.319-0.454-0.646-0.68-0.984-4.412-6.394-8.185-12.307-10.093-16.44-5.768-12.494-.769-26.125,6.325-31.888,0.06-.072.122-0.142,0.184-0.214a37.672,37.672,0,0,1,10.914-8.359l-1.22-1.532a3.029,3.029,0,0,1,.09-3.854c-2.423,1.439-5.128,3.043-7.787,4.626-6.769,4.032-12.1,9-15.626,24.148-2.9,12.483-6.248,38.911-6.247,67.089,0,6.009.153,12.1,0.494,18.149,0.956,16.943,3.931,39.7,9.688,49.718l0.139,0.238c0.012,0.021.023,0.04,0.036,0.061l0.183,0.252-0.02.014a11.516,11.516,0,0,0,1.982,2.38l0,0,0.25,0.187a11.068,11.068,0,0,0,1.012.754l0.487,0.363h0a15.864,15.864,0,0,0,8.3,2.018" class="cls-20" data-name="Fill 94" transform="translate(-935 -278.969)"/><path id="Fill_95" d="M1023.04,478c2.95-.95,5.26-1.89,6.53-3.055,0.15-.14.3-0.284,0.43-0.429a75.263,75.263,0,0,1-9.07-8.516l-0.04.052-2.89,4.129c0.02,0.033,2.08,3.122,5.04,7.819" class="cls-28" data-name="Fill 95" transform="translate(-935 -278.969)"/><path id="Fill_96" d="M1001.88,485c7.41-4.037,15.49-6.039,21.12-8-2.82-4.809-4.77-7.971-4.79-8l-16.68,9.758a0.094,0.094,0,0,1-.01.01s-0.01,0-.01.005v0a2.941,2.941,0,0,0-.71.616,0.326,0.326,0,0,0-.05.03,3.2,3.2,0,0,0-.1,3.992l1.23,1.587" class="cls-29" data-name="Fill 96" transform="translate(-935 -278.969)"/><path id="Fill_97" d="M1024,581l-0.12-.07a0.757,0.757,0,0,1,.1.07H1024m-4.51-4.755a0.015,0.015,0,0,0-.01-0.017c-0.34-.506-0.86-1.245-1.51-2.173,0.15,0.223.3,0.44,0.44,0.649,0.37,0.55.73,1.062,1.08,1.541m-9.06-12.668c-4.83-6.674-10.6-14.644-15.107-20.972-0.006-.009-0.013-0.02-0.02-0.029,4.887,7.066,10.457,14.629,15.127,21m-15.808-21.99c-8.155-12.194-14.938-35.424-3.771-48.587-7.1,5.794-12.1,19.5-6.33,32.058,1.909,4.157,5.685,10.1,10.1,16.529" class="cls-30" data-name="Fill 97" transform="translate(-935 -278.969)"/><path id="Fill_98" d="M1081,661.685s-67.56.708-84.187,0a26.258,26.258,0,0,1-22.64-14.143s-21.93-67.536-27.59-90.52c-4.481-18.2-9.126-25.532-10.867-27.8a3.383,3.383,0,0,1-.716-2.058V523c16.988,0.041,40.124,96.2,43.349,109.5,3.27,13.5,9.62,18.221,25.541,18.221,11.62,0,47.41-3.209,65.86-4.937A10.287,10.287,0,0,1,1081,656.03v5.655" class="cls-5" data-name="Fill 98" transform="translate(-935 -278.969)"/><path id="Fill_99" d="M1008,582a9,9,0,0,0,9,9h461.01a9,9,0,0,0,8.99-9H1008" class="cls-31" data-name="Fill 99" transform="translate(-935 -278.969)"/><path id="Fill_101" d="M1031,784h4V590h-4V784Z" class="cls-5" data-name="Fill 101" transform="translate(-935 -278.969)"/></svg>