<svg xmlns="http://www.w3.org/2000/svg" width="201" height="243" viewBox="0 0 201 243">
  <metadata><?xpacket begin="﻿" id="W5M0MpCehiHzreSzNTczkc9d"?>
<x:xmpmeta xmlns:x="adobe:ns:meta/" x:xmptk="Adobe XMP Core 5.6-c142 79.160924, 2017/07/13-01:06:39        ">
   <rdf:RDF xmlns:rdf="http://www.w3.org/1999/02/22-rdf-syntax-ns#">
      <rdf:Description rdf:about=""/>
   </rdf:RDF>
</x:xmpmeta>
                                                                                                    
                                                                                                    
                                                                                                    
                                                                                                    
                                                                                                    
                                                                                                    
                                                                                                    
                                                                                                    
                                                                                                    
                                                                                                    
                                                                                                    
                                                                                                    
                                                                                                    
                                                                                                    
                                                                                                    
                                                                                                    
                                                                                                    
                                                                                                    
                                                                                                    
                                                                                                    
                           
<?xpacket end="w"?></metadata>
<defs>
    <style>
      .cls-1 {
        fill: #006044;
      }

      .cls-1, .cls-2, .cls-3, .cls-4, .cls-5 {
        fill-rule: evenodd;
      }

      .cls-2 {
        fill: #00835e;
      }

      .cls-3 {
        fill: #fffffe;
      }

      .cls-4 {
        fill: #b3c1cf;
      }

      .cls-5 {
        fill: #006754;
      }
    </style>
  </defs>
  <path id="Fill_6" data-name="Fill 6" class="cls-1" d="M1416,710h9.08a106.033,106.033,0,0,1,1.77-18.709c1.77-8.2,4.8-17.55,7.46-21.295s16.85,1.841,21.71,8.381c6.54,8.783,13.72,12.367,18.79,15.21a1.716,1.716,0,0,0,2.55-1.519v-12.01c0-2.934,2.22-2.934,2.22-.016,0,4.473,1.26,14.134,1.26,14.134a1.745,1.745,0,0,0,1.62,1.736c12.4,0.994,16.44-7.581,19.6-13.967,3.3-6.658,6.37-23.466-5.89-20.612s-21.22-1.9-38.2-4.748-23.58,5.252-27.23,13.411S1416,710,1416,710" transform="translate(-1304 -543)"/>
  <path id="Fill_102" data-name="Fill 102" class="cls-1" d="M1429,708.47h2.84s3.63-10.849,6.02-10.406,4.61,6.572,3.48,10.406-4.54,22.808,0,39.327,21.51,19.2,21.51,19.2-3.35-5.119-4.59-14.711,5.83-18.929,4.59-25.856-14.53-16.232-17.01-21.442-0.88-7.637-1.77-9.767-7.27-6.041-9.93,0S1429,708.47,1429,708.47" transform="translate(-1304 -543)"/>
  <path id="Fill_103" data-name="Fill 103" class="cls-2" d="M1410.83,710h-2.76c-2.28-8.2-4.21-57.678-2.28-71.1s9.3-41.855,25.02-50.6,45.02-45.3,45.02-45.3c2.15,9.233.79,31.779,0.22,39.73a1.185,1.185,0,0,1-2.07.7c-2.6-2.935-7.25-8.011-9.56-9.349-3.3-1.916-5.11,1.106-1.73,3.266,5.14,3.293,9.55,9.947,12.08,13.689a4.825,4.825,0,0,1,.72,3.642c-2.22,11.325-10.13,22.339-13.04,26.089a1.176,1.176,0,0,1-1.95-.132l-11-18.65c-2.76-4.673-5.42.354-2.46,5.475,2.32,4.019,7.96,12.98,10.28,16.654a2.745,2.745,0,0,1-.25,3.275c-1.41,1.59-4.37,4.62-10.55,10.272-11.41,10.419-26.54,13.849-31.89,15.2-6.11,1.546-5.75,8.52-5.91,25.418A266.232,266.232,0,0,0,1410.83,710" transform="translate(-1304 -543)"/>
  <path id="Fill_104" data-name="Fill 104" class="cls-2" d="M1406,710h-2.83s-2.83-10.385-5.48-20.134-8.48-23.931-19.62-24.64a46.461,46.461,0,0,0-10.39.232,76.8,76.8,0,0,1-12.68.3c-11.71-.417-24.77-5.844-29.88-8.171a1.72,1.72,0,0,1-.58-2.683c3.36-3.848,3.51-7.547,4.21-10.774,0.79-3.68-2.43-2.85-3.07.06-1.12,5.079-6.59,8.616-8.85,9.884a1.718,1.718,0,0,1-1.85-.087C1304,645.864,1304,628,1304,628c10.61,5.14,27.05,4.786,45.26,3.013s44.19,11.169,45.6,25.349S1406,710,1406,710" transform="translate(-1304 -543)"/>
  <path id="Fill_105" data-name="Fill 105" class="cls-2" d="M1407.34,690.106l0.53,14.621s1.22-10.491-3.92-15.061-8.86,2.46-17.2,9.841-3.42,9.313-15.02,25.126-33.73,11.95-33.73,11.95a78.776,78.776,0,0,0,9.4-12.3c5.31-8.258,7.8-21.085,14-32.181s19.87-14.875,25.89-15.964c9.69-1.757,20.05,13.969,20.05,13.969" transform="translate(-1304 -543)"/>
  <path id="Fill_106" data-name="Fill 106" class="cls-3" d="M1403.49,710H1381l16.64,76h42.14L1452,710h-48.51" transform="translate(-1304 -543)"/>
  <path id="Fill_107" data-name="Fill 107" class="cls-4" d="M1396,666c-0.66-3.743-1.17-7.061-1.42-9.582,0.25,2.523.76,5.833,1.42,9.578v0m-67.55-34.052c6.3,0,13.11-.469,20.19-1.161-7.06.689-13.85,1.155-20.12,1.155-8.23,0-15.58-.8-21.52-2.942l0.03,0.032c5.92,2.124,13.23,2.916,21.42,2.916m20.37-1.178,0.23-.023-0.23.023" transform="translate(-1304 -543)"/>
  <path id="Fill_108" data-name="Fill 108" class="cls-5" d="M1396,666c-0.66-3.749-1.17-7.063-1.41-9.588-1.33-13.483-24.25-25.861-42.1-25.861-1.18,0-2.33.054-3.46,0.166l-0.23.022c-0.06.007-.12,0.011-0.18,0.017-7.08.693-13.9,1.162-20.19,1.162-8.19,0-15.51-.792-21.43-2.918,5.56,5.529,15.98,9.807,36.85,10.7,27.49,1.177,44.71,15,52.15,26.3" transform="translate(-1304 -543)"/>
  <path id="Fill_109" data-name="Fill 109" class="cls-4" d="M1405,654a128.494,128.494,0,0,1,.78-15.142A128.494,128.494,0,0,0,1405,654m71-111v0" transform="translate(-1304 -543)"/>
  <path id="Fill_110" data-name="Fill 110" class="cls-5" d="M1405,658c4.56-14.541,23.64-20.366,24.92-40.574,1.47-23.147,23.26-19.229,26.43-41.308,1.65-11.5,11.54-18.312,20.65-22.2a61.421,61.421,0,0,0-1.08-10.883l-0.01,0V543s-29.35,36.858-45.08,45.671-23.11,37.48-25.04,51.011a133.326,133.326,0,0,0-.77,15.266c-0.01.994-.02,2.013-0.02,3.052" transform="translate(-1304 -543)"/>
  <path id="Fill_111" data-name="Fill 111" class="cls-4" d="M1400.2,710c15.95,21.929-25.36,73.347,39.8,76h-42.3L1381,710h19.2" transform="translate(-1304 -543)"/>
</svg>
