<svg xmlns="http://www.w3.org/2000/svg" xmlns:xlink="http://www.w3.org/1999/xlink" width="679" height="733" version="1.1" viewBox="0 0 679 733"><title>vault</title><desc>Created with Sketch.</desc><defs><linearGradient id="linearGradient-1" x1="50%" x2="50%" y1="100%" y2="0%"><stop offset="0%" stop-color="gray" stop-opacity=".25"/><stop offset="54%" stop-color="gray" stop-opacity=".12"/><stop offset="100%" stop-color="gray" stop-opacity=".1"/></linearGradient><linearGradient id="linearGradient-2" x1="50%" x2="50%" y1="-1134.63%" y2="0%"><stop offset="0%" stop-color="gray" stop-opacity=".25"/><stop offset="54%" stop-color="gray" stop-opacity=".12"/><stop offset="100%" stop-color="gray" stop-opacity=".1"/></linearGradient><linearGradient id="linearGradient-3" x1="50%" x2="50%" y1="100%" y2="0%"><stop offset="0%" stop-color="gray" stop-opacity=".25"/><stop offset="54%" stop-color="gray" stop-opacity=".12"/><stop offset="100%" stop-color="gray" stop-opacity=".1"/></linearGradient><linearGradient id="linearGradient-4" x1="50%" x2="50%" y1="100%" y2="0%"><stop offset="0%" stop-color="gray" stop-opacity=".25"/><stop offset="54%" stop-color="gray" stop-opacity=".12"/><stop offset="100%" stop-color="gray" stop-opacity=".1"/></linearGradient><linearGradient id="linearGradient-5" x1="50%" x2="50%" y1="100%" y2="0%"><stop offset="0%" stop-color="gray" stop-opacity=".25"/><stop offset="54%" stop-color="gray" stop-opacity=".12"/><stop offset="100%" stop-color="gray" stop-opacity=".1"/></linearGradient><linearGradient id="linearGradient-6" x1="49.959%" x2="49.959%" y1="100.039%" y2="0%"><stop offset="0%" stop-color="gray" stop-opacity=".25"/><stop offset="54%" stop-color="gray" stop-opacity=".12"/><stop offset="100%" stop-color="gray" stop-opacity=".1"/></linearGradient><linearGradient id="linearGradient-7" x1="50%" x2="50%" y1="100.039%" y2="0%"><stop offset="0%" stop-color="gray" stop-opacity=".25"/><stop offset="54%" stop-color="gray" stop-opacity=".12"/><stop offset="100%" stop-color="gray" stop-opacity=".1"/></linearGradient><linearGradient id="linearGradient-8" x1="50%" x2="50%" y1="100%" y2="-.01%"><stop offset="0%" stop-color="gray" stop-opacity=".25"/><stop offset="54%" stop-color="gray" stop-opacity=".12"/><stop offset="100%" stop-color="gray" stop-opacity=".1"/></linearGradient><linearGradient id="linearGradient-9" x1="49.987%" x2="49.987%" y1="100%" y2="0%"><stop offset="0%" stop-color="gray" stop-opacity=".25"/><stop offset="54%" stop-color="gray" stop-opacity=".12"/><stop offset="100%" stop-color="gray" stop-opacity=".1"/></linearGradient><linearGradient id="linearGradient-10" x1="50%" x2="50%" y1="100%" y2="0%"><stop offset="0%" stop-color="gray" stop-opacity=".25"/><stop offset="54%" stop-color="gray" stop-opacity=".12"/><stop offset="100%" stop-color="gray" stop-opacity=".1"/></linearGradient></defs><g id="Page-1" fill="none" fill-rule="evenodd" stroke="none" stroke-width="1"><g id="vault" fill-rule="nonzero"><rect id="Rectangle" width="50.2" height="59.37" x="560.38" y="673.63" fill="url(#linearGradient-1)"/><rect id="Rectangle" width="47.87" height="57.21" x="561.55" y="673.62" fill="#F5F5F5" transform="translate(585.485000, 702.225000) rotate(-180.000000) translate(-585.485000, -702.225000)"/><rect id="Rectangle" width="50.2" height="59.37" x="68.88" y="673.63" fill="url(#linearGradient-2)"/><rect id="Rectangle" width="47.87" height="57.21" x="70.05" y="673.63" fill="#F5F5F5"/><rect id="Rectangle" width="678.3" height="681.8" x="0" y="0" fill="url(#linearGradient-3)" rx="14.86"/><rect id="Rectangle" width="670.12" height="670.12" x="4.67" y="3.5" fill="#FAFAFA" rx="14.86"/><rect id="Rectangle" width="452.98" height="457.65" x="112.66" y="111.49" fill="url(#linearGradient-4)"/><rect id="Rectangle" width="445.97" height="445.97" x="116.16" y="116.16" fill="#FFF"/><circle id="Oval" cx="339.15" cy="339.15" r="84.06" fill="url(#linearGradient-5)"/><circle id="Oval" cx="339.15" cy="339.15" r="80.56" fill="#FAFAFA"/><rect id="Rectangle" width="24.52" height="25.68" x="277.86" y="499.67" fill="url(#linearGradient-6)"/><rect id="Rectangle" width="24.52" height="25.68" x="310.55" y="499.67" fill="url(#linearGradient-6)"/><rect id="Rectangle" width="24.52" height="25.68" x="343.23" y="499.67" fill="url(#linearGradient-7)"/><rect id="Rectangle" width="24.52" height="25.68" x="375.92" y="499.67" fill="url(#linearGradient-7)"/><rect id="Rectangle" width="23.35" height="23.35" x="278.44" y="500.84" fill="#FF605E"/><rect id="Rectangle" width="23.35" height="23.35" x="311.13" y="500.84" fill="#FF605E" opacity=".7"/><rect id="Rectangle" width="23.35" height="23.35" x="343.82" y="500.84" fill="#FF605E" opacity=".5"/><rect id="Rectangle" width="23.35" height="23.35" x="376.51" y="500.84" fill="#FF605E" opacity=".3"/><rect id="Rectangle" width="4.67" height="16.34" x="367.763" y="287.798" fill="#FF605E" transform="translate(370.098048, 295.968387) rotate(35.000000) translate(-370.098048, -295.968387)"/><rect id="Rectangle" width="4.67" height="16.34" x="379.996" y="361.923" fill="#FF605E" transform="translate(382.331224, 370.092792) rotate(125.000000) translate(-382.331224, -370.092792)"/><rect id="Rectangle" width="4.67" height="16.34" x="305.863" y="374.156" fill="#FF605E" transform="translate(308.197597, 382.326480) rotate(-145.000000) translate(-308.197597, -382.326480)"/><rect id="Rectangle" width="4.67" height="16.34" x="293.638" y="300.032" fill="#FF605E" transform="translate(295.973131, 308.202341) rotate(-55.000000) translate(-295.973131, -308.202341)"/><rect id="Rectangle" width="4.67" height="16.34" x="367.721" y="287.661" fill="#000" opacity=".2" transform="translate(370.055583, 295.830763) rotate(35.000000) translate(-370.055583, -295.830763)"/><rect id="Rectangle" width="4.67" height="16.34" x="379.958" y="361.789" fill="#000" opacity=".2" transform="translate(382.293112, 369.958518) rotate(125.000000) translate(-382.293112, -369.958518)"/><rect id="Rectangle" width="4.67" height="16.34" x="305.831" y="374.016" fill="#000" opacity=".2" transform="translate(308.165798, 382.185913) rotate(-145.000000) translate(-308.165798, -382.185913)"/><rect id="Rectangle" width="4.67" height="16.34" x="293.601" y="299.895" fill="#000" opacity=".2" transform="translate(295.935507, 308.064807) rotate(-55.000000) translate(-295.935507, -308.064807)"/><circle id="Oval" cx="339.15" cy="339.15" r="50.78" fill="url(#linearGradient-8)"/><circle id="Oval" cx="339.15" cy="339.15" r="47.87" fill="#FF605E"/><path id="Path" fill="#FFF" d="M300.04,345.57 C300.021085,328.486538 309.109527,312.688271 323.887138,304.116968 C338.664749,295.545665 356.890637,295.501087 371.71,304 C358.376136,291.167712 338.83926,287.172341 321.538101,293.73964 C304.236941,300.306939 292.272205,316.25992 290.811923,334.707877 C289.35164,353.155834 298.657522,370.792531 314.71,380 C305.334915,371.000282 300.036747,358.565658 300.04,345.57 Z" opacity=".2"/><path id="Path" fill="url(#linearGradient-9)" d="M135.43,296.54 L98.07,296.54 L98.07,203.26 C98.0755121,201.259113 99.6991051,199.639992 101.7,199.64 L131.81,199.64 C133.814794,199.64 135.44,201.265206 135.44,203.27 L135.43,296.54 Z"/><path id="Path" fill="url(#linearGradient-10)" d="M131.62,479.83 L101.88,479.83 C99.7757951,479.83 98.07,478.124205 98.07,476.02 L98.07,382.93 L135.430053,382.93 L135.43,476 C135.435323,477.013936 135.036264,477.98817 134.321173,478.707015 C133.606081,479.42586 132.63395,479.830014 131.62,479.83 Z"/><path id="Path" fill="#FAFAFA" d="M102.4,200.8 L131.09,200.8 C132.840743,200.8 134.26,202.219257 134.26,203.97 L134.26,294.2 L99.2598565,294.2 L99.26,204 C99.2520057,203.159253 99.578344,202.349768 100.167216,201.749644 C100.756089,201.149519 101.559252,200.807919 102.4,200.8 L102.4,200.8 Z"/><path id="Path" fill="#FAFAFA" d="M99.23,384.1 L134.23,384.1 L134.23,476.43 C134.23,477.015422 133.755422,477.49 133.17,477.49 L100.3,477.49 C99.7145782,477.49 99.24,477.015422 99.24,476.43 L99.24,384.1 L99.23,384.1 Z"/></g></g></svg>